<?xml version="1.0" encoding="utf-8"?>
<!-- Generator: Adobe Illustrator 16.0.0, SVG Export Plug-In . SVG Version: 6.00 Build 0)  -->
<!DOCTYPE svg PUBLIC "-//W3C//DTD SVG 1.1//EN" "http://www.w3.org/Graphics/SVG/1.1/DTD/svg11.dtd">
<svg version="1.1" id="图层_1" xmlns="http://www.w3.org/2000/svg" xmlns:xlink="http://www.w3.org/1999/xlink" x="0px" y="0px"
	 width="200px" height="200px" viewBox="0 0 200 200" enable-background="new 0 0 200 200" xml:space="preserve">
<g>
	<path fill-rule="evenodd" clip-rule="evenodd" fill="#FDD14F" d="M101.5,7.001c47.613,0,86.213,32.152,86.213,71.815
		c0,39.662-38.6,71.814-86.213,71.814c-47.614,0-86.213-32.152-86.213-71.814C15.287,39.154,53.886,7.001,101.5,7.001z"/>
	<path fill-rule="evenodd" clip-rule="evenodd" fill="#FFFFFF" d="M67.198,44.982c9.793,0,17.733,6.91,17.733,16.475
		c0,9.566-7.94,8.027-17.733,8.027c-9.794,0-17.733,1.539-17.733-8.027C49.465,51.892,57.404,44.982,67.198,44.982z"/>
	<path fill-rule="evenodd" clip-rule="evenodd" fill="#FFFFFF" d="M130.53,44.982c9.795,0,17.733,6.91,17.733,16.475
		c0,9.566-7.938,8.027-17.733,8.027c-9.793,0-17.732,1.539-17.732-8.027C112.798,51.892,120.737,44.982,130.53,44.982z"/>
	<path fill-rule="evenodd" clip-rule="evenodd" fill="#1A2732" d="M67.189,55.81c2.334,0,4.226,1.892,4.226,4.224
		c0,2.333-1.892,4.225-4.226,4.225c-2.334,0-4.227-1.892-4.227-4.225C62.963,57.702,64.855,55.81,67.189,55.81z"/>
	<path fill-rule="evenodd" clip-rule="evenodd" fill="#1A2732" d="M130.528,55.81c2.334,0,4.227,1.892,4.227,4.224
		c0,2.333-1.893,4.225-4.227,4.225c-2.335,0-4.227-1.892-4.227-4.225C126.302,57.702,128.193,55.81,130.528,55.81z"/>
	<path fill-rule="evenodd" clip-rule="evenodd" fill="#F98080" d="M115.056,88.667c-1.684,9.45-8.407,16.514-16.452,16.514
		s-14.769-7.064-16.451-16.514c0,0,7.952,1.32,15.777,1.32C106.521,89.987,115.056,88.667,115.056,88.667z"/>
</g>
<rect x="52" y="109" fill-rule="evenodd" clip-rule="evenodd" fill="#F2EED7" width="90" height="84"/>
<circle fill-rule="evenodd" clip-rule="evenodd" fill="#8C6137" cx="47.697" cy="134.625" r="19.958"/>
<circle fill-rule="evenodd" clip-rule="evenodd" fill="#8C6137" cx="148.697" cy="134.625" r="19.957"/>
<g>
	
		<rect x="67.326" y="154.858" transform="matrix(0.7071 0.7071 -0.7071 0.7071 136.5249 -11.3249)" fill-rule="evenodd" clip-rule="evenodd" fill="#EBAC15" width="29.214" height="8.559"/>
	
		<rect x="78.547" y="146.577" transform="matrix(-0.7071 0.7071 -0.7071 -0.7071 285.6087 183.4097)" fill-rule="evenodd" clip-rule="evenodd" fill="#EBAC15" width="52.544" height="8.559"/>
</g>
<ellipse display="none" fill-rule="evenodd" clip-rule="evenodd" fill="#F2F2F2" cx="98.962" cy="105.172" rx="4.856" ry="1.521"/>
</svg>
